<svg width="16" height="16" viewBox="0 0 13 13" fill="none" xmlns="http://www.w3.org/2000/svg">
<path d="M5.88889 8.33333L4.05556 6.5M4.05556 6.5L5.88889 4.66667M4.05556 6.5H8.94444M1 6.5C1 5.77773 1.14226 5.06253 1.41866 4.39524C1.69506 3.72795 2.10019 3.12163 2.61091 2.61091C3.12163 2.10019 3.72795 1.69506 4.39524 1.41866C5.06253 1.14226 5.77773 1 6.5 1C7.22227 1 7.93747 1.14226 8.60476 1.41866C9.27205 1.69506 9.87836 2.10019 10.3891 2.61091C10.8998 3.12163 11.3049 3.72795 11.5813 4.39524C11.8577 5.06253 12 5.77773 12 6.5C12 7.95869 11.4205 9.35764 10.3891 10.3891C9.35764 11.4205 7.95869 12 6.5 12C5.04131 12 3.64236 11.4205 2.61091 10.3891C1.57946 9.35764 1 7.95869 1 6.5Z" stroke="#190708" stroke-linecap="round" stroke-linejoin="round"/>
</svg>
