<svg width="20" height="20" viewBox="0 0 20 20" fill="none" xmlns="http://www.w3.org/2000/svg">
<path d="M2.5 2.5H4.16667L4.5 4.16667M4.5 4.16667H17.5L14.1667 10.8333H5.83333M4.5 4.16667L5.83333 10.8333M5.83333 10.8333L3.9225 12.7442C3.3975 13.2692 3.76917 14.1667 4.51167 14.1667H14.1667M14.1667 14.1667C13.7246 14.1667 13.3007 14.3423 12.9882 14.6548C12.6756 14.9674 12.5 15.3913 12.5 15.8333C12.5 16.2754 12.6756 16.6993 12.9882 17.0118C13.3007 17.3244 13.7246 17.5 14.1667 17.5C14.6087 17.5 15.0326 17.3244 15.3452 17.0118C15.6577 16.6993 15.8333 16.2754 15.8333 15.8333C15.8333 15.3913 15.6577 14.9674 15.3452 14.6548C15.0326 14.3423 14.6087 14.1667 14.1667 14.1667ZM7.5 15.8333C7.5 16.2754 7.3244 16.6993 7.01184 17.0118C6.69928 17.3244 6.27536 17.5 5.83333 17.5C5.39131 17.5 4.96738 17.3244 4.65482 17.0118C4.34226 16.6993 4.16667 16.2754 4.16667 15.8333C4.16667 15.3913 4.34226 14.9674 4.65482 14.6548C4.96738 14.3423 5.39131 14.1667 5.83333 14.1667C6.27536 14.1667 6.69928 14.3423 7.01184 14.6548C7.3244 14.9674 7.5 15.3913 7.5 15.8333Z" stroke="#FEFEFF" stroke-width="1.5" stroke-linecap="round" stroke-linejoin="round"/>
</svg>
