<svg width="22" height="22" viewBox="0 0 14 14" fill="none" xmlns="http://www.w3.org/2000/svg">
<path d="M8.04286 5.95714C7.62613 5.54054 7.06101 5.3065 6.47175 5.3065C5.8825 5.3065 5.31737 5.54054 4.90064 5.95714L2.67842 8.17936C2.46617 8.38435 2.29688 8.62956 2.18042 8.90068C2.06395 9.1718 2.00265 9.4634 2.00008 9.75847C1.99752 10.0535 2.05375 10.3462 2.16548 10.6193C2.27722 10.8924 2.44222 11.1405 2.65087 11.3491C2.85952 11.5578 3.10764 11.7228 3.38074 11.8345C3.65385 11.9463 3.94647 12.0025 4.24153 11.9999C4.5366 11.9974 4.8282 11.936 5.09932 11.8196C5.37044 11.7031 5.61565 11.5338 5.82064 11.3216L6.43286 10.7099M6.01175 7.98825C6.42848 8.40485 6.99361 8.63889 7.58286 8.63889C8.17212 8.63889 8.73725 8.40485 9.15397 7.98825L11.3762 5.76603C11.781 5.34691 12.005 4.78557 11.9999 4.20291C11.9949 3.62025 11.7611 3.06289 11.3491 2.65087C10.9371 2.23886 10.3797 2.00515 9.79709 2.00008C9.21443 1.99502 8.65309 2.21901 8.23397 2.6238L7.62286 3.23492" stroke="#190708" stroke-linecap="round" stroke-linejoin="round"/>
</svg>
